<?xml version="1.0" standalone="no"?>
<!DOCTYPE svg PUBLIC "-//W3C//DTD SVG 20010904//EN"
 "http://www.w3.org/TR/2001/REC-SVG-20010904/DTD/svg10.dtd">
<svg version="1.0" xmlns="http://www.w3.org/2000/svg"
 width="1184.000000pt" height="533.000000pt" viewBox="0 0 1184.000000 533.000000"
 preserveAspectRatio="xMidYMid meet">
<metadata>
Created by potrace 1.15, written by Peter Selinger 2001-2017
</metadata>
<g transform="translate(0.000000,533.000000) scale(0.100000,-0.100000)"
fill="#000000" stroke="none">
<path d="M10632 3665 c2 -223 3 -405 1 -405 -1 0 -24 16 -50 36 -112 86 -224
119 -373 111 -121 -6 -207 -34 -301 -95 -218 -144 -340 -385 -356 -703 -26
-549 233 -910 657 -912 149 -1 276 47 407 153 l61 49 12 -67 c6 -37 14 -75 17
-84 4 -16 21 -18 184 -18 l179 0 0 1170 0 1170 -221 0 -222 0 5 -405z m-201
-631 c47 -11 90 -29 132 -57 l62 -42 3 -359 2 -359 -49 -48 c-100 -96 -222
-130 -342 -96 -153 45 -233 208 -233 477 0 234 62 381 191 457 77 45 129 51
234 27z"/>
<path d="M1361 3390 c-41 -10 -113 -37 -160 -61 -69 -35 -105 -62 -182 -139
-84 -84 -102 -107 -148 -200 -66 -134 -91 -233 -98 -386 -18 -390 145 -692
450 -834 177 -83 413 -97 627 -39 71 19 253 101 294 132 19 14 17 19 -54 148
-40 74 -74 135 -75 136 0 1 -37 -15 -81 -37 -104 -52 -180 -71 -286 -71 -217
-1 -360 99 -427 299 -12 34 -21 68 -21 77 0 13 58 15 499 15 362 0 502 3 507
11 4 7 9 73 12 148 10 287 -74 527 -231 666 -67 59 -192 121 -282 140 -96 20
-252 18 -344 -5z m283 -334 c62 -19 109 -56 142 -112 29 -49 54 -138 54 -191
l0 -33 -324 0 -324 0 15 57 c37 142 116 235 233 276 57 20 143 21 204 3z"/>
<path d="M5056 3394 c-82 -20 -193 -75 -271 -134 -37 -28 -67 -50 -69 -50 -2
0 -9 28 -15 63 -7 34 -14 70 -17 80 -5 15 -22 17 -185 17 l-179 0 0 -1135 0
-1135 221 0 222 0 -5 375 c-3 206 -2 373 1 370 3 -2 36 -23 73 -48 124 -84
252 -116 389 -97 153 21 251 71 369 190 66 66 95 105 132 175 78 152 118 323
118 510 0 441 -183 747 -491 820 -79 18 -214 18 -293 -1z m152 -378 c123 -62
175 -193 176 -441 0 -201 -37 -324 -125 -420 -67 -73 -107 -90 -214 -90 -97 0
-139 14 -237 77 l-48 30 0 358 0 358 34 30 c146 128 288 162 414 98z"/>
<path d="M6586 3394 c-109 -20 -237 -64 -353 -123 -155 -78 -148 -54 -58 -222
43 -79 79 -145 80 -147 1 -1 44 20 96 47 140 74 236 103 339 105 47 0 102 -6
124 -13 79 -28 144 -114 159 -213 5 -36 4 -38 -26 -42 -18 -3 -92 -14 -164
-26 -507 -80 -744 -263 -743 -575 1 -292 192 -486 480 -488 156 -1 285 45 433
155 37 28 69 49 71 47 2 -2 10 -40 17 -84 l14 -80 183 -3 182 -2 0 507 c0 280
-5 549 -10 598 -35 312 -191 507 -448 560 -91 19 -270 18 -376 -1z m394 -1038
l0 -154 -52 -47 c-105 -94 -232 -134 -337 -105 -83 22 -142 114 -125 193 28
134 135 197 439 261 11 2 32 4 48 5 l27 1 0 -154z"/>
<path d="M8590 3395 c-111 -27 -235 -97 -336 -188 l-52 -47 -10 62 c-6 35 -14
82 -17 106 l-7 42 -179 0 -179 0 0 -820 0 -820 220 0 220 0 0 564 0 564 58 51
c31 28 88 67 126 86 60 30 78 35 141 35 102 0 150 -26 190 -105 l30 -59 3
-568 3 -568 220 0 220 0 -3 623 c-4 614 -4 623 -27 697 -75 248 -225 361 -476
359 -49 0 -115 -7 -145 -14z"/>
</g>
</svg>
