<?xml version="1.0" encoding="utf-8"?>
<!-- Generator: Adobe Illustrator 16.0.3, SVG Export Plug-In . SVG Version: 6.00 Build 0)  -->
<!DOCTYPE svg PUBLIC "-//W3C//DTD SVG 1.1//EN" "http://www.w3.org/Graphics/SVG/1.1/DTD/svg11.dtd">
<svg version="1.1" id="Layer_1" xmlns="http://www.w3.org/2000/svg" xmlns:xlink="http://www.w3.org/1999/xlink" x="0px" y="0px"
	 width="14px" height="14px" viewBox="0 0 14 14" enable-background="new 0 0 14 14" xml:space="preserve">
<path fill="#3361B7" d="M0,14h7.7c-1-0.8-1.7-2.1-1.7-3.5c0-1.1,0.4-2.1,1.1-2.9C7,7.5,7,7.5,7,7.5C6.8,7.2,6.8,6.8,7,6.5
	c0,0,3-2.5,3-6.5H0c0,4,3,6.5,3,6.5c0.2,0.3,0.2,0.7,0,0.9C3,7.5,0,10,0,14z M2,3h6C7.4,4.8,6.4,6,5,6C3.6,6,2.6,4.8,2,3z"/>
<path fill-rule="evenodd" clip-rule="evenodd" fill="#3361B7" d="M13.8,9.9c-0.3,0-0.6-0.2-0.7-0.5c-0.1-0.3,0-0.6,0.2-0.9
	c0.1-0.1,0.1-0.2,0-0.3c-0.2-0.2-0.4-0.4-0.6-0.6c-0.1-0.1-0.2-0.1-0.3,0C12.2,8,11.8,8.1,11.5,8c-0.3-0.1-0.5-0.4-0.5-0.8
	C11.1,7.1,11,7,10.9,7c-0.3,0-0.5,0-0.8,0C10,7,9.9,7.1,9.9,7.2C10,7.5,9.8,7.8,9.5,8C9.2,8.1,8.8,8,8.6,7.8c-0.1-0.1-0.2-0.1-0.3,0
	C8.1,7.9,7.9,8.1,7.8,8.3c-0.1,0.1-0.1,0.2,0,0.3C8,8.8,8.1,9.1,8,9.4C7.9,9.7,7.6,9.9,7.2,9.9C7.1,9.9,7,10,7,10.1
	c0,0.3,0,0.5,0,0.8c0,0.1,0.1,0.2,0.2,0.2c0.3,0,0.6,0.2,0.7,0.5c0.1,0.3,0,0.6-0.2,0.9c-0.1,0.1-0.1,0.2,0,0.3
	c0.2,0.2,0.3,0.4,0.6,0.6c0.1,0.1,0.2,0.1,0.3,0C8.8,13,9.2,12.9,9.4,13c0.3,0.1,0.5,0.4,0.5,0.8c0,0.1,0.1,0.2,0.2,0.2
	c0.1,0,0.3,0,0.4,0c0.1,0,0.3,0,0.4,0c0.1,0,0.2-0.1,0.2-0.2c0-0.3,0.2-0.6,0.5-0.7c0.3-0.1,0.7,0,0.9,0.2c0.1,0.1,0.2,0.1,0.3,0
	c0.2-0.2,0.4-0.4,0.6-0.6c0.1-0.1,0.1-0.2,0-0.3c-0.2-0.2-0.3-0.6-0.2-0.9c0.1-0.3,0.4-0.5,0.7-0.5l0,0c0.1,0,0.2-0.1,0.2-0.2
	c0-0.3,0-0.5,0-0.8C14,10,13.9,9.9,13.8,9.9z M10.5,12C9.7,12,9,11.3,9,10.5S9.7,9,10.5,9S12,9.7,12,10.5S11.3,12,10.5,12z"/>
</svg>
