<?xml version="1.0" encoding="utf-8"?>
<!-- Generator: Adobe Illustrator 16.0.3, SVG Export Plug-In . SVG Version: 6.00 Build 0)  -->
<!DOCTYPE svg PUBLIC "-//W3C//DTD SVG 1.1//EN" "http://www.w3.org/Graphics/SVG/1.1/DTD/svg11.dtd">
<svg version="1.1" id="Layer_1" xmlns="http://www.w3.org/2000/svg" xmlns:xlink="http://www.w3.org/1999/xlink" x="0px" y="0px"
	 width="14px" height="14px" viewBox="0 0 14 14" enable-background="new 0 0 14 14" xml:space="preserve">
<path fill="#3361B7" d="M7,0C3.1,0,0,3.1,0,7s3.1,7,7,7s7-3.1,7-7S10.9,0,7,0z M7,13c-3.3,0-6-2.7-6-6c0-3.3,2.7-6,6-6
	c3.3,0,6,2.7,6,6C13,10.3,10.3,13,7,13z"/>
<path fill="#3361B7" d="M7,2v5l3.5,3.5C11.4,9.6,12,8.4,12,7C12,4.2,9.8,2,7,2z"/>
</svg>
